PathFileType	4	(X/Y/Z)	/Users/itak/Documents/Research/Walk-IL/dataset/trc/00563_00009.trc
DataRate	CameraRate	NumFrames	NumMarkers	Units	OrigDataRate	OrigDataStartFrame	OrigNumFrames
100.000000	100.000000	4	53	mm	100.000000	0	419
Frame#	Time	RPSI			LPSI			L3			STRN			T10			C7			CLAV			RBAK			LBAK			LSHO			LUPA			LAEL			LAOL			LWTS			LWPS			LFRA			LHPS			LHTS			RSHO			RUPA			RAEL			RAOL			RWTS			RWPS			RFRA			RIFD			RHTS			RHPS			RBHD			LFHD			RFHD			LBHD			LHIP			RHIP			RASI			LASI			LKNE			LTHI			LANK			LTIP			LTOE			LMT1			LMT5			LHEE			RKNE			RTHI			RANK			RTIP			RTOE			RMT1			RMT5			RHEE			LIFD			
		X1	Y1	Z1	X2	Y2	Z2	X3	Y3	Z3	X4	Y4	Z4	X5	Y5	Z5	X6	Y6	Z6	X7	Y7	Z7	X8	Y8	Z8	X9	Y9	Z9	X10	Y10	Z10	X11	Y11	Z11	X12	Y12	Z12	X13	Y13	Z13	X14	Y14	Z14	X15	Y15	Z15	X16	Y16	Z16	X17	Y17	Z17	X18	Y18	Z18	X19	Y19	Z19	X20	Y20	Z20	X21	Y21	Z21	X22	Y22	Z22	X23	Y23	Z23	X24	Y24	Z24	X25	Y25	Z25	X26	Y26	Z26	X27	Y27	Z27	X28	Y28	Z28	X29	Y29	Z29	X30	Y30	Z30	X31	Y31	Z31	X32	Y32	Z32	X33	Y33	Z33	X34	Y34	Z34	X35	Y35	Z35	X36	Y36	Z36	X37	Y37	Z37	X38	Y38	Z38	X39	Y39	Z39	X40	Y40	Z40	X41	Y41	Z41	X42	Y42	Z42	X43	Y43	Z43	X44	Y44	Z44	X45	Y45	Z45	X46	Y46	Z46	X47	Y47	Z47	X48	Y48	Z48	X49	Y49	Z49	X50	Y50	Z50	X51	Y51	Z51	X52	Y52	Z52	X53	Y53	Z53	

1	0	-1410.72607421875	1014.788452148438	-493.7470397949219	-1355.430541992188	1019.455322265625	-615.3917236328125	-1376.15576171875	1106.513061523438	-553.9597778320312	-1153.027221679688	1294.1552734375	-474.2566528320312	-1382.67626953125	1233.358032226562	-555.0255737304688	-1340.642211914062	1505.89794921875	-523.2403564453125	-1170.325927734375	1406.162109375	-479.0496215820312	-1434.529174804688	1381.407836914062	-467.0293579101562	-1344.666381835938	1455.1435546875	-620.8456420898438	-1227.45166015625	1483.200439453125	-667.7556762695312	-1216.30712890625	1358.955932617188	-750.7548828125	-1196.594970703125	1137.13720703125	-772.3882446289062	-1293.76953125	1131.708618164062	-748.2771606445312	-1137.772094726562	887.105224609375	-708.168701171875	-1156.39599609375	870.4306640625	-791.7218627929688	-1176.091796875	1049.7421875	-775.6282348632812	-1153.776733398438	810.305419921875	-785.9947509765625	-1123.725341796875	807.6402587890625	-724.9260864257812	-1334.135375976562	1468.317138671875	-359.3340148925781	-1373.975830078125	1403.670654296875	-302.9237670898438	-1392.347045898438	1116.548706054688	-256.2264099121094	-1438.603759765625	1099.46142578125	-297.2572937011719	-1254.00537109375	895.1214599609375	-257.2225952148438	-1315.563354492188	876.1231079101562	-205.3271789550781	-1385.08056640625	1061.20947265625	-245.4458770751953	-1260.86669921875	732.0484619140625	-268.0601806640625	-1232.876831054688	802.37158203125	-234.7421264648438	-1300.318481445312	802.0081787109375	-199.9798126220703	-1282.101440429688	1686.957885742188	-438.8069458007812	-1085.922241210938	1701.7919921875	-505.9648742675781	-1156.156127929688	1701.4501953125	-378.5186157226562	-1196.344116210938	1685.533935546875	-580.422607421875	-1190.622436523438	938.6837768554688	-687.5286254882812	-1345.689575195312	937.0416259765625	-337.6940612792969	-1242.604370117188	968.2990112304688	-355.9318542480469	-1134.346435546875	963.4833984375	-610.9652099609375	-1193.349487304688	494.2755432128906	-625.37744140625	-1180.962158203125	659.3970947265625	-659.506591796875	-1291.49169921875	29.37271690368652	-649.3385009765625	-1261.644897460938	248.6241455078125	-652.0258178710938	-1117.975830078125	35.7515754699707	-516.6089477539062	-1198.869140625	38.3000602722168	-510.1425476074219	-1171.478759765625	31.68699645996094	-615.2435302734375	-1376.4150390625	28.71194458007812	-625.0933837890625	-1291.030517578125	494.5848083496094	-360.7727966308594	-1308.017578125	784.5048828125	-321.7342224121094	-1407.261962890625	31.99651527404785	-417.3197021484375	-1295.122680664062	349.0978088378906	-375.9822082519531	-1185.7900390625	36.42265319824219	-370.9662475585938	-1228.859375	35.86094284057617	-433.9871215820312	-1290.370361328125	36.27711486816406	-348.0509338378906	-1435.14306640625	18.96848678588867	-489.2895202636719	-1156.040283203125	718.2298583984375	-721.9488525390625	
2	0.01	-1410.9072265625	1014.870544433594	-493.8037719726562	-1355.59423828125	1019.509582519531	-615.4468383789062	-1376.279296875	1106.520629882812	-553.991943359375	-1153.096313476562	1294.1630859375	-474.3235473632812	-1382.828735351562	1233.436279296875	-555.0884399414062	-1340.686157226562	1505.930297851562	-523.2744750976562	-1170.380615234375	1406.17333984375	-479.1053466796875	-1434.59326171875	1381.459228515625	-467.046630859375	-1344.740112304688	1455.20068359375	-620.8851318359375	-1227.502685546875	1483.247680664062	-667.778076171875	-1216.142944335938	1359.017578125	-750.7709350585938	-1195.905029296875	1137.24951171875	-772.3120727539062	-1293.135498046875	1131.548461914062	-748.3674926757812	-1136.009521484375	887.754638671875	-707.4972534179688	-1154.61669921875	870.7111206054688	-790.9966430664062	-1175.109008789062	1049.919921875	-775.3792724609375	-1151.59912109375	810.5765991210938	-785.085205078125	-1122.799438476562	807.618408203125	-723.7261352539062	-1334.165649414062	1468.368041992188	-359.3696594238281	-1374.02197265625	1403.73583984375	-302.9299926757812	-1392.403198242188	1116.642456054688	-256.1727905273438	-1438.675537109375	1099.535034179688	-297.1697692871094	-1253.975341796875	895.2623291015625	-257.18701171875	-1315.513549804688	876.22998046875	-205.2627716064453	-1385.115600585938	1061.289794921875	-245.3961334228516	-1260.708129882812	732.1747436523438	-268.0594177246094	-1232.792358398438	802.5157470703125	-234.7178955078125	-1300.229125976562	802.1387329101562	-199.916748046875	-1282.052368164062	1686.998291015625	-438.8356628417969	-1085.866577148438	1701.75537109375	-506.0215454101562	-1156.054321289062	1701.442993164062	-378.5903625488281	-1196.318969726562	1685.52490234375	-580.4415893554688	-1190.830322265625	938.6724243164062	-687.586669921875	-1345.80322265625	937.0759887695312	-337.7169189453125	-1242.709106445312	968.3241577148438	-355.9854431152344	-1134.340698242188	963.6011962890625	-611.095703125	-1193.49462890625	494.2393188476562	-625.449462890625	-1181.095703125	659.4258422851562	-659.5549926757812	-1291.496704101562	29.37363052368164	-649.3399047851562	-1261.702026367188	248.6202545166016	-652.0460205078125	-1117.978515625	35.75018310546875	-516.6229248046875	-1198.869750976562	38.29867553710938	-510.139404296875	-1171.49169921875	31.68133735656738	-615.239013671875	-1376.4130859375	28.70977210998535	-625.0928344726562	-1291.212768554688	494.6101989746094	-360.8220520019531	-1308.187744140625	784.5480346679688	-321.7496948242188	-1407.2783203125	31.98892593383789	-417.3120422363281	-1295.2939453125	349.1546325683594	-376.0011291503906	-1185.799926757812	36.43187713623047	-370.96630859375	-1228.863525390625	35.86665344238281	-433.9917602539062	-1290.377319335938	36.27788543701172	-348.0501708984375	-1435.165771484375	18.92937278747559	-489.267333984375	-1155.62548828125	717.5048217773438	-720.1474609375	
3	0.02	-1411.138671875	1014.975524902344	-493.879150390625	-1355.815551757812	1019.588623046875	-615.5255126953125	-1376.434936523438	1106.529418945312	-554.0337524414062	-1153.187255859375	1294.172241210938	-474.4090881347656	-1383.026977539062	1233.535888671875	-555.1732177734375	-1340.746215820312	1505.973388671875	-523.3217163085938	-1170.453369140625	1406.188598632812	-479.1803588867188	-1434.671875	1381.523315429688	-467.0691528320312	-1344.841430664062	1455.276000976562	-620.942138671875	-1227.568725585938	1483.311645507812	-667.8094482421875	-1215.932983398438	1359.099731445312	-750.7945556640625	-1194.993041992188	1137.400756835938	-772.2092895507812	-1292.29736328125	1131.346435546875	-748.4949340820312	-1133.67333984375	888.640869140625	-706.58251953125	-1152.240356445312	871.0947875976562	-790.010498046875	-1173.796508789062	1050.164672851562	-775.0402221679688	-1148.702270507812	810.9624633789062	-783.856689453125	-1121.364501953125	807.7803955078125	-722.2373657226562	-1334.2060546875	1468.434448242188	-359.4171752929688	-1374.079833984375	1403.821044921875	-302.9423828125	-1392.472290039062	1116.762084960938	-256.10595703125	-1438.764526367188	1099.629516601562	-297.0577392578125	-1253.926635742188	895.4468994140625	-257.142578125	-1315.439819335938	876.372314453125	-205.1765594482422	-1385.159057617188	1061.394287109375	-245.32568359375	-1260.501708984375	732.343994140625	-268.0288696289062	-1232.678833007812	802.70849609375	-234.6701049804688	-1300.100219726562	802.3109741210938	-199.8330383300781	-1281.994018554688	1687.050415039062	-438.876220703125	-1085.778442382812	1701.714477539062	-506.110595703125	-1155.917846679688	1701.43359375	-378.6972045898438	-1196.287841796875	1685.513549804688	-580.468505859375	-1191.09619140625	938.6580810546875	-687.6626586914062	-1345.957153320312	937.1224365234375	-337.7493286132812	-1242.846435546875	968.3616333007812	-356.0523986816406	-1134.364379882812	963.737060546875	-611.2654418945312	-1193.692016601562	494.1886291503906	-625.5435791015625	-1181.271484375	659.4614868164062	-659.6145629882812	-1291.503051757812	29.37471580505371	-649.3416748046875	-1261.782958984375	248.6187591552734	-652.0734252929688	-1117.982055664062	35.74896240234375	-516.6381225585938	-1198.870971679688	38.29695510864258	-510.1350402832031	-1171.506469726562	31.6750602722168	-615.2330932617188	-1376.410766601562	28.70739364624023	-625.0923461914062	-1291.448486328125	494.6436462402344	-360.8863525390625	-1308.407958984375	784.6000366210938	-321.7724609375	-1407.2998046875	31.97947311401367	-417.3013000488281	-1295.5126953125	349.226806640625	-376.0265808105469	-1185.8125	36.44405746459961	-370.9658203125	-1228.869018554688	35.8739128112793	-433.9971618652344	-1290.385375976562	36.27881622314453	-348.0494079589844	-1435.194213867188	18.88474464416504	-489.240478515625	-1154.997924804688	716.6856079101562	-717.810546875	
4	0.03	-1411.412231445312	1015.098876953125	-493.9717712402344	-1356.091674804688	1019.693908691406	-615.6284790039062	-1376.615600585938	1106.538696289062	-554.0841064453125	-1153.297729492188	1294.182250976562	-474.5097351074219	-1383.263671875	1233.652221679688	-555.2789306640625	-1340.821899414062	1506.0263671875	-523.3820190429688	-1170.543090820312	1406.207397460938	-479.2734985351562	-1434.760131835938	1381.596923828125	-467.0963439941406	-1344.969604492188	1455.367553710938	-621.0181274414062	-1227.647094726562	1483.391723632812	-667.8497314453125	-1215.6845703125	1359.201416015625	-750.8262939453125	-1193.87939453125	1137.588989257812	-772.080810546875	-1291.273559570312	1131.111694335938	-748.6594848632812	-1130.818359375	889.7554931640625	-705.4291381835938	-1149.307983398438	871.5806884765625	-788.7711181640625	-1172.177490234375	1050.4765625	-774.61328125	-1145.141235351562	811.4689331054688	-782.3219604492188	-1119.354125976562	808.2124633789062	-720.5360107421875	-1334.255859375	1468.514282226562	-359.4758911132812	-1374.146728515625	1403.923706054688	-302.9627990722656	-1392.55029296875	1116.902587890625	-256.0296325683594	-1438.865478515625	1099.741088867188	-296.9259948730469	-1253.855712890625	895.6705322265625	-257.0908508300781	-1315.339599609375	876.5475463867188	-205.0697174072266	-1385.208129882812	1061.519897460938	-245.2339935302734	-1260.253540039062	732.5533447265625	-267.9541320800781	-1232.537231445312	802.9468994140625	-234.5919952392578	-1299.929565429688	802.5208740234375	-199.7295684814453	-1281.93115234375	1687.1123046875	-438.92919921875	-1085.653442382812	1701.673217773438	-506.2369384765625	-1155.74951171875	1701.421997070312	-378.8425598144531	-1196.252319335938	1685.500366210938	-580.5039672851562	-1191.408447265625	938.641357421875	-687.7544555664062	-1346.150390625	937.1801147460938	-337.7919616699219	-1243.01220703125	968.412841796875	-356.1298522949219	-1134.432373046875	963.8789672851562	-611.469482421875	-1193.939331054688	494.1239013671875	-625.6565551757812	-1181.485473632812	659.5026245117188	-659.6823120117188	-1291.5107421875	29.37572479248047	-649.3436889648438	-1261.887939453125	248.6219329833984	-652.107666015625	-1117.986328125	35.7481803894043	-516.6529541015625	-1198.872924804688	38.29501724243164	-510.1296081542969	-1171.521606445312	31.6689338684082	-615.225830078125	-1376.408447265625	28.70506286621094	-625.0919189453125	-1291.729858398438	494.6841735839844	-360.9637756347656	-1308.671508789062	784.6572875976562	-321.8032531738281	-1407.325805664062	31.96865463256836	-417.2877197265625	-1295.76953125	349.3108520507812	-376.0580749511719	-1185.827392578125	36.45881652832031	-370.9644775390625	-1228.87548828125	35.88231658935547	-434.0026245117188	-1290.394165039062	36.27983093261719	-348.0486755371094	-1435.226806640625	18.83872985839844	-489.2108764648438	-1154.091064453125	715.8861694335938	-715.0234985351562	
